<?xml version="1.0" encoding="UTF-8" standalone="no"?>
<svg width="24px" height="24px" viewBox="0 0 24 24" version="1.1" xmlns="http://www.w3.org/2000/svg" xmlns:xlink="http://www.w3.org/1999/xlink">
    <g stroke="none" stroke-width="1" fill="none" fill-rule="evenodd">
        <path d="M12,2 C17.5228,2 22,6.47715 22,12 C22,17.5228 17.5228,22 12,22 C6.47715,22 2,17.5228 2,12 C2,6.47715 6.47715,2 12,2 Z" fill="#FFFFFF"></path>
        <path d="M19.8056,12.0415 C19.8056,11.4535 19.7616,10.8855 19.6796,10.3375 L12.0006,10.3375 L12.0006,13.5095 L16.4046,13.5095 C16.2086,14.6015 15.5886,15.5195 14.6486,16.1295 L14.6486,17.9935 L17.3676,17.9935 C18.9566,16.5715 19.8056,14.4855 19.8056,12.0415 Z" fill="#4285F4"></path>
        <path d="M12.0004,20.0001 C14.2704,20.0001 16.1704,19.2001 17.3674,17.9931 L14.6484,16.1291 C13.8884,16.6491 13.0114,16.9601 12.0004,16.9601 C9.9904,16.9601 8.2904,15.6201 7.6264,13.7801 L4.8164,13.7801 L4.8164,15.7101 C5.9984,18.2601 8.7404,20.0001 12.0004,20.0001 Z" fill="#34A853"></path>
        <path d="M7.6266,13.7802 C7.4566,13.2602 7.3566,12.6902 7.3566,12.0002 C7.3566,11.3102 7.4566,10.7402 7.6266,10.2202 L7.6266,8.29016 L4.8166,8.29016 C4.2966,9.4102 4.0006,10.6702 4.0006,12.0002 C4.0006,13.3302 4.2966,14.5902 4.8166,15.7102 L7.6266,13.7802 Z" fill="#FBBC05"></path>
        <path d="M12.0004,7.04 C13.3204,7.04 14.5004,7.53 15.4004,8.39 L17.8204,5.97 C16.1704,4.43 14.2704,3.5 12.0004,3.5 C8.7404,3.5 5.9984,5.24 4.8164,7.79 L7.6264,9.72 C8.2904,7.88 9.9904,7.04 12.0004,7.04 Z" fill="#EA4335"></path>
    </g>
</svg>
